#!OML:ASF E:\acrobat2\Project_11_07_03\Capture day 1\Session 1\Acrobat.ASF
:FULLY-SPECIFIED
:DEGREES
306
root 8.41413 7.1743 4.34893 -0.108547 3.02984 0.538957
lowerback 27.7313 0.802588 2.38896
upperback 7.45114 1.59806 -1.07902
thorax -6.88931 0.763426 -3.09321
lowerneck -1.46156 -2.03786 -1.82379
upperneck -20.5673 -2.42756 2.50382
head -5.91664 -1.20903 1.21043
rclavicle 9.88954e-015 -1.19271e-015
rhumerus 70.874 30.2022 9.71241
rradius 90.3879
rwrist 21.1912
rhand -20.0925 -15.0056
rfingers 7.12502
rthumb 6.25051 -44.8934
lclavicle 9.88954e-015 -1.19271e-015
lhumerus 68.2263 -4.18899 -6.68827
lradius 93.7661
lwrist -11.3525
lhand -39.9472 -48.6938
lfingers 7.12502
lthumb -12.9169 -19.1136
rfemur -101.009 -11.1782 26.8489
rtibia 22.1313
rfoot -210.541 -0.590181
rtoes -9.52118
lfemur -98.977 13.2844 -25.8411
ltibia 26.046
lfoot -193.183 22.7314
ltoes 41.1345
307
root 8.3938 7.35051 4.39316 -1.43015 2.39663 0.495854
lowerback 28.656 1.31956 1.69294
upperback 7.298 2.08313 -0.998395
thorax -7.50768 0.983769 -2.79715
lowerneck -1.84455 -2.21612 -1.98161
upperneck -19.1327 -2.67159 2.59603
head -5.39095 -1.32553 1.2524
rclavicle 7.28049e-015 -2.33075e-014
rhumerus 69.24 30.3325 8.71816
rradius 88.8737
rwrist 20.7271
rhand -20.3302 -14.8187
rfingers 7.12502
rthumb 6.02106 -44.7131
lclavicle 7.28049e-015 -2.33075e-014
lhumerus 67.6136 -3.86333 -5.80432
lradius 91.8127
lwrist -9.62749
lhand -36.6208 -48.5669
lfingers 7.12502
lthumb -9.70884 -18.8107
rfemur -98.2773 -10.6647 26.397
rtibia 23.3436
rfoot -209.183 -0.0635778
rtoes -10.3577
lfemur -96.4587 14.3942 -25.1848
ltibia 27.0915
lfoot -192.45 21.7702
ltoes 40.9394
308
root 8.40073 7.50436 4.42836 -1.54307 2.62223 0.0182894
lowerback 27.7348 1.28342 2.00395
upperback 7.1531 2.11977 -0.944948
thorax -7.21032 1.00398 -2.89914
lowerneck -2.13005 -2.26273 -2.07565
upperneck -17.9911 -2.70769 2.83604
head -4.98126 -1.35235 1.32541
rclavicle 2.69105e-014 5.96354e-015
rhumerus 67.4931 30.2418 7.40357
rradius 87.2601
rwrist 19.863
rhand -19.9839 -14.5331
rfingers 7.12502
rthumb 6.35533 -44.4177
lclavicle 2.69105e-014 5.96354e-015
lhumerus 66.9385 -3.70694 -5.4984
lradius 89.2733
lwrist -10.6549
lhand -37.8884 -47.8395
lfingers 7.12502
lthumb -10.9316 -18.1441
rfemur -97.2155 -10.9379 26.3718
rtibia 24.4439
rfoot -207.259 0.00898852
rtoes -9.96471
lfemur -95.6434 14.1911 -24.534
ltibia 27.7871
lfoot -191.853 20.5795
ltoes 40.0715
309
root 8.40253 7.67309 4.47022 -1.76658 2.8736 -0.244778
lowerback 26.7783 1.29554 2.07842
upperback 7.11024 2.1421 -0.964882
thorax -6.78402 1.02424 -2.93671
lowerneck -2.21116 -2.29566 -2.16182
upperneck -17.0269 -2.71614 3.17886
head -4.66223 -1.37084 1.43235
rclavicle -1.36851e-014 9.0447e-015
rhumerus 65.6583 30.14 5.84893
rradius 85.4852
rwrist 18.6215
rhand -19.6828 -14.866
rfingers 7.12502
rthumb 6.646 -44.7417
lclavicle -1.36851e-014 9.0447e-015
lhumerus 66.4727 -3.50442 -5.0267
lradius 86.7962
lwrist -10.5739
lhand -40.1306 -50.2977
lfingers 7.12502
lthumb -13.0937 -20.7288
rfemur -96.1606 -11.251 26.254
rtibia 25.4655
rfoot -205.096 0.529376
rtoes -11.0444
lfemur -94.4905 13.9347 -23.9862
ltibia 28.7536
lfoot -190.652 19.3594
ltoes 40.8394
310
root 8.40734 7.86037 4.51698 -2.13987 3.21678 -0.203858
lowerback 26.0865 1.41165 1.7539
upperback 7.02403 2.20235 -0.949585
thorax -6.54882 1.06078 -2.72841
lowerneck -1.48412 -2.38453 -2.31017
upperneck -16.5775 -2.82168 3.47847
head -4.63372 -1.43554 1.55682
rclavicle 1.76173e-014 1.20762e-014
rhumerus 63.731 30.1798 4.28437
rradius 83.3989
rwrist 17.1776
rhand -19.6883 -15.2554
rfingers 7.12502
rthumb 6.64076 -45.1312
lclavicle 1.76173e-014 1.20762e-014
lhumerus 66.3036 -3.29298 -4.20504
lradius 84.4131
lwrist -8.4546
lhand -37.1919 -46.8032
lfingers 7.12502
lthumb -10.2598 -17.0734
rfemur -94.9718 -11.8308 25.5878
rtibia 26.6008
rfoot -202.485 0.83132
rtoes -10.7141
lfemur -93.1054 13.5698 -23.672
ltibia 29.9222
lfoot -189.924 17.645
ltoes 39.6587
311
root 8.41145 8.06069 4.56158 -2.64969 3.56592 -0.504868
lowerback 25.4968 1.42102 1.74885
upperback 6.98257 2.21482 -0.883057
thorax -6.30472 1.07227 -2.63519
lowerneck -1.60034 -2.60823 -1.76931
upperneck -14.9894 -3.20236 2.99904
head -4.5935 -1.61819 1.43696
rclavicle 3.50855e-014 2.98177e-016
rhumerus 61.915 30.144 2.61663
rradius 81.113
rwrist 15.6045
rhand -19.6389 -15.5092
rfingers 7.12502
rthumb 6.68838 -45.3836
lclavicle 3.50855e-014 2.98177e-016
lhumerus 66.0081 -3.28709 -3.82
lradius 81.6263
lwrist -7.85901
lhand -36.7385 -45.431
lfingers 7.12502
lthumb -9.82232 -15.6801
rfemur -93.6678 -12.3314 25.2935
rtibia 27.9348
rfoot -199.544 1.37613
rtoes -10.1176
lfemur -91.7498 13.3334 -23.0563
ltibia 31.0945
lfoot -189.568 15.5255
ltoes 35.7434
312
root 8.40839 8.26767 4.60558 -3.22468 3.85179 -0.929036
lowerback 24.9695 1.38939 1.72058
upperback 6.95525 2.17209 -0.771735
thorax -6.08062 1.05625 -2.46596
lowerneck -1.16231 -2.69884 -1.93654
upperneck -14.264 -3.30843 3.33601
head -4.40109 -1.68085 1.57727
rclavicle 1.98288e-014 -8.84592e-015
rhumerus 60.3681 30.0601 1.01091
rradius 78.7637
rwrist 13.9013
rhand -19.6071 -16.3731
rfingers 7.12502
rthumb 6.71914 -46.2465
lclavicle 1.98288e-014 -8.84592e-015
lhumerus 65.6021 -3.46569 -3.46462
lradius 78.9625
lwrist -6.47257
lhand -36.7333 -43.9413
lfingers 7.12502
lthumb -9.81734 -14.1902
rfemur -92.4581 -12.6535 25.2678
rtibia 29.1813
rfoot -196.53 1.93622
rtoes -8.06582
lfemur -90.3726 13.3217 -22.3539
ltibia 32.3465
lfoot -188.504 13.4273
ltoes 32.3474
313
root 8.40592 8.48234 4.65463 -3.82174 4.15587 -1.25596
lowerback 24.3634 1.36908 1.60721
upperback 6.99997 2.11839 -0.711653
thorax -5.73827 1.03797 -2.29754
lowerneck -0.968288 -2.77636 -1.95866
upperneck -13.3393 -3.40929 3.5516
head -4.09563 -1.74102 1.6389
rclavicle 1.91827e-014 3.97569e-015
rhumerus 58.7002 29.8457 -0.801373
rradius 76.2816
rwrist 12.3323
rhand -19.5096 -17.3465
rfingers 7.12502
rthumb 6.81321 -47.2169
lclavicle 1.91827e-014 3.97569e-015
lhumerus 65.3556 -3.71487 -3.1542
lradius 76.118
lwrist -5.36331
lhand -37.6914 -41.3795
lfingers 7.12502
lthumb -10.7416 -11.6741
rfemur -91.4305 -13.0469 25.2188
rtibia 30.3147
rfoot -193.289 2.6798
rtoes -4.63468
lfemur -88.8934 13.3573 -21.7543
ltibia 33.6604
lfoot -186.802 11.549
ltoes 30.7199
314
root 8.40988 8.69921 4.70122 -4.46099 4.52094 -1.68355
lowerback 23.8391 1.3369 1.70511
upperback 7.03988 2.10142 -0.639961
thorax -5.43166 1.03604 -2.25177
lowerneck -0.965261 -2.87252 -1.76676
upperneck -12.2062 -3.55247 3.58236
head -3.68945 -1.82152 1.59137
rclavicle -1.6201e-014 -2.18663e-015
rhumerus 56.814 29.5389 -2.78552
rradius 73.6542
rwrist 10.9298
rhand -19.2117 -17.9401
rfingers 7.12502
rthumb 7.10083 -47.8009
lclavicle -1.6201e-014 -2.18663e-015
lhumerus 65.2893 -4.03056 -2.63642
lradius 73.2593
lwrist -3.84187
lhand -37.9319 -39.6105
lfingers 7.12502
lthumb -10.9736 -9.91733
rfemur -90.3765 -13.5676 24.9917
rtibia 31.9755
rfoot -189.334 3.74317
rtoes -1.78386
lfemur -87.3403 13.2808 -20.9771
ltibia 34.9768
lfoot -184.774 10.0776
ltoes 31.1167
